<svg width="116" height="116" viewBox="0 0 116 116" fill="none" xmlns="http://www.w3.org/2000/svg">
<path d="M77.3756 0.249878C73.843 0.249878 71.0402 3.04891 71.0402 6.57882C71.0402 6.94388 71.0402 7.18753 71.1617 7.55258L64.3394 11.5682C63.6086 11.9333 63.2432 12.7857 63.2432 13.6371V28.9719C63.2432 30.3107 64.3394 31.2846 65.5582 31.2846C66.8983 31.2846 67.8732 30.1894 67.8732 28.9719L67.8723 14.9768L73.3545 11.6905C74.4507 12.5428 75.7909 13.0293 77.2535 13.0293C80.7861 13.0293 83.5889 10.2303 83.5889 6.70036C83.7104 3.04895 80.9086 0.249921 77.3757 0.249921L77.3756 0.249878Z" fill="white"/>
<path d="M39.1209 13.0292C40.5826 13.0292 41.9228 12.5428 43.02 11.6904L48.5021 14.9767V28.9725C48.5021 30.3113 49.5984 31.2851 50.8171 31.2851C52.1573 31.2851 53.1321 30.19 53.1321 28.9725V13.6377C53.1321 12.7854 52.6452 12.0553 52.0358 11.5688L45.3349 7.6738C45.3349 7.30875 45.4565 7.06509 45.4565 6.70004C45.4565 3.17099 42.6546 0.371094 39.121 0.371094C35.5884 0.371094 32.7856 3.17012 32.7856 6.70004C32.7865 10.1078 35.5884 13.029 39.121 13.029L39.1209 13.0292Z" fill="white"/>
<path d="M50.9383 84.8357C49.5981 84.8357 48.6233 85.9309 48.6233 87.1483V101.144L43.1412 104.43C42.0449 103.578 40.7048 103.092 39.2421 103.092C35.7095 103.092 32.9067 105.891 32.9067 109.421C32.9067 112.95 35.7086 115.75 39.2421 115.75C42.7748 115.75 45.5776 112.95 45.5776 109.421C45.5776 109.056 45.5776 108.812 45.456 108.447L52.1569 104.552C52.8878 104.187 53.2532 103.334 53.2532 102.483V87.1481C53.2532 85.9307 52.2785 84.8354 50.9382 84.8354L50.9383 84.8357Z" fill="white"/>
<path d="M77.3754 103.092C75.9137 103.092 74.5735 103.578 73.4764 104.431L67.9943 101.144V87.1485C67.9943 85.8096 66.898 84.8358 65.6793 84.8358C64.3391 84.8358 63.3643 85.931 63.3643 87.1485V102.483C63.3643 103.336 63.8512 104.066 64.4605 104.552L71.1614 108.447C71.1614 108.812 71.0399 109.056 71.0399 109.421C71.0399 112.95 73.8418 115.75 77.3753 115.75C80.908 115.75 83.7107 112.951 83.7107 109.421C83.7099 105.891 80.908 103.092 77.3753 103.092L77.3754 103.092Z" fill="white"/>
<path d="M109.782 70.7177C109.417 70.7177 109.173 70.7177 108.808 70.8391L104.788 64.1459C104.422 63.4158 103.569 63.0508 102.717 63.0508H87.3658C86.0256 63.0508 85.0508 64.1459 85.0508 65.3634C85.0508 66.7022 86.1471 67.6761 87.3658 67.6761H101.376L104.665 73.1526C103.812 74.2478 103.325 75.5865 103.325 77.0477C103.325 80.5767 106.127 83.3766 109.661 83.3766C113.193 83.3766 115.996 80.5776 115.996 77.0477C116.118 73.639 113.316 70.7178 109.782 70.7178L109.782 70.7177Z" fill="white"/>
<path d="M87.3658 53.0703H102.716C103.569 53.0703 104.3 52.5839 104.787 51.9752L108.686 45.2811C109.052 45.2811 109.296 45.4025 109.661 45.4025C113.194 45.4025 115.996 42.6035 115.996 39.0736C115.996 35.5445 113.194 32.7446 109.661 32.7446C106.127 32.7455 103.326 35.423 103.326 38.9521C103.326 40.4123 103.813 41.7511 104.666 42.8471L101.376 48.3237H87.366C86.0258 48.3237 85.051 49.4188 85.051 50.6363C85.051 52.0965 86.1473 53.0702 87.366 53.0702L87.3658 53.0703Z" fill="white"/>
<path d="M29.1306 48.4457H15.1205L11.8309 42.9691C12.6841 41.8739 13.1711 40.5352 13.1711 39.0741C13.1711 35.545 10.3692 32.7451 6.83565 32.7451C3.303 32.7451 0.500244 35.5441 0.500244 39.0741C0.500244 42.6031 3.30213 45.403 6.83565 45.403C7.20108 45.403 7.44498 45.403 7.8104 45.2816L11.7094 51.9757C12.0748 52.7058 12.9281 53.0708 13.7804 53.0708H29.1309C30.471 53.0708 31.4459 51.9757 31.4459 50.7582C31.4459 49.4185 30.3496 48.4456 29.1309 48.4456L29.1306 48.4457Z" fill="white"/>
<path d="M29.1306 63.0503H13.7802C12.927 63.0503 12.1961 63.5367 11.7092 64.1454L7.81016 70.8395C7.44473 70.8395 7.20083 70.7181 6.83541 70.7181C3.30276 70.7181 0.5 73.5171 0.5 77.0471C0.5 80.5761 3.30189 83.376 6.83541 83.376C10.3681 83.376 13.1708 80.577 13.1708 77.0471C13.1708 75.5868 12.6839 74.248 11.8306 73.152L15.1203 67.6754H29.1304C30.4705 67.6754 31.4454 66.5803 31.4454 65.3628C31.4454 64.024 30.3491 63.0502 29.1304 63.0502L29.1306 63.0503Z" fill="white"/>
<path d="M66.4313 73.5734L69.8425 76.1297C70.6957 76.8598 72.035 76.7384 72.8883 75.886L76.2995 72.4782C77.1528 71.6259 77.1528 70.4093 76.5434 69.5571L73.9846 66.1493C74.4715 64.9319 74.5939 64.5669 75.2032 63.2281L79.4677 62.6194C80.564 62.498 81.4172 61.5243 81.4172 60.3068V55.439C81.4172 54.3438 80.564 53.3701 79.4677 53.1263L75.2032 52.5176C74.7163 51.1788 74.4724 50.9352 73.9846 49.5965L76.5434 46.1887C77.2743 45.3363 77.1528 43.9984 76.2995 43.2675L72.7669 39.8615C71.9137 39.0091 70.6959 39.0091 69.7211 39.6178L66.3099 42.1741C64.9697 41.6876 64.7258 41.444 63.3857 40.9567L62.7764 36.6965C62.6549 35.6014 61.6801 34.7499 60.5839 34.7499H55.7111C54.6148 34.7499 53.6401 35.6022 53.3961 36.6974L52.7868 40.9575C51.4466 41.444 51.2027 41.5662 49.8626 42.1749L46.4514 39.6178C45.5981 38.8877 44.2588 39.0091 43.4056 39.8615L40.1168 43.2692C39.2636 44.1216 39.2636 45.3381 39.8729 46.1904L42.4318 49.5982C41.9448 50.8156 41.7009 51.1806 41.2131 52.5193L36.9486 53.128C35.8524 53.3709 35 54.3446 35 55.4398V60.3076C35 61.4028 35.8532 62.3765 36.9495 62.6203L41.214 63.229C41.7009 64.5678 41.9448 64.8114 42.4326 66.1501L39.8729 69.5579C39.142 70.4103 39.2636 71.7482 40.1168 72.4791L43.528 75.8869C44.3813 76.7392 45.5991 76.7392 46.5738 76.1305L49.9851 73.5743C51.3253 74.0607 51.5691 74.3044 52.9092 74.7917L53.5185 79.0518C53.6401 80.147 54.6148 80.9993 55.8335 80.9993H60.7063C61.8026 80.9993 62.7773 80.147 63.0213 79.0518L63.6307 74.7917C64.7261 74.3044 65.0924 74.1821 66.4317 73.5734H66.4313ZM60.0967 67.8541V70.288C60.0967 70.5316 59.9752 70.653 59.7313 70.653H56.5639C56.32 70.653 56.1985 70.5316 56.1985 70.288V67.9754C53.5182 67.4889 51.4471 65.1763 51.2032 62.3764C51.2032 62.1328 51.3247 62.0114 51.5687 62.0114H54.736C54.8576 62.0114 55.1015 62.1328 55.1015 62.255C55.223 63.3502 56.1977 64.2025 57.294 64.2025H58.878C59.9743 64.2025 60.949 63.4724 61.0705 62.4987C61.3144 61.1599 60.3397 59.9424 58.878 59.9424H57.4163C54.2489 59.9424 51.4464 57.5085 51.2032 54.3435C50.9593 51.1793 53.1527 48.5018 56.1985 48.0145V45.7019C56.1985 45.4583 56.32 45.3368 56.5639 45.3368H59.7313C59.9752 45.3368 60.0967 45.4582 60.0967 45.7019V48.0145C62.777 48.501 64.8481 50.8136 65.092 53.6135C65.092 53.8571 64.9704 53.9785 64.7265 53.9785H61.5591C61.4376 53.9785 61.1937 53.8571 61.1937 53.7349C61.0722 52.6397 60.0974 51.9096 59.0012 51.9096H57.4171C56.3209 51.9096 55.3461 52.6397 55.2246 53.6135C54.9807 54.9523 56.0779 56.1697 57.4171 56.1697H59.1227C62.534 56.1697 65.3359 59.0909 65.0926 62.6202C64.8479 65.1764 62.6545 67.3667 60.0965 67.854L60.0967 67.8541Z" fill="white"/>
</svg>
