<svg width="119" height="116" viewBox="0 0 119 116" fill="none" xmlns="http://www.w3.org/2000/svg">
<path d="M95.0813 75.4363C87.0682 75.4363 80.5801 81.8529 80.5801 89.7772C80.5801 97.7017 87.0684 104.118 95.0813 104.118C103.094 104.118 109.583 97.7014 109.583 89.7772C109.583 81.8536 103.094 75.4363 95.0813 75.4363ZM95.0813 87.9233C97.8617 87.9233 100.107 90.144 100.107 92.8936C100.107 94.9718 98.81 96.7433 96.9761 97.4974V97.7215C96.9761 98.7606 96.1311 99.5952 95.0814 99.5952C94.0307 99.5962 93.1867 98.74 93.1867 97.7215V97.4974C91.3536 96.764 90.0555 94.9717 90.0555 92.8936C90.0555 91.8545 90.9005 91.0199 91.9502 91.0199C93.0009 91.0199 93.8449 91.8555 93.8449 92.8936C93.8449 93.566 94.4006 94.1156 95.0805 94.1156C95.7604 94.1156 96.3161 93.566 96.3161 92.8936C96.3161 92.2212 95.7604 91.6717 95.0805 91.6717C92.3002 91.6717 90.0546 89.4509 90.0546 86.7013C90.0546 84.6231 91.3519 82.8516 93.1858 82.0976V81.8734C93.1858 80.8343 94.0307 79.9997 95.0805 79.9997C96.1312 79.9997 96.9751 80.8353 96.9751 81.8734V82.0976C98.8082 82.8309 100.106 84.6232 100.106 86.7013C100.106 87.7404 99.2614 88.5751 98.2116 88.5751C97.1609 88.5751 96.3169 87.7395 96.3169 86.7013C96.3169 86.0289 95.7612 85.4794 95.0813 85.4794C94.4014 85.4794 93.8457 86.0289 93.8457 86.7013C93.8457 87.3737 94.4014 87.9233 95.0813 87.9233Z" fill="white"/>
<path d="M28.899 82.9939C19.7536 82.9939 12.3379 90.3276 12.3379 99.3718C12.3379 108.416 19.7536 115.75 28.899 115.75C38.0443 115.75 45.46 108.416 45.46 99.3718C45.46 90.3276 38.0443 82.9939 28.899 82.9939ZM28.899 97.4971C31.9061 97.4971 34.3781 99.9214 34.3781 102.916C34.3781 105.238 32.8741 107.214 30.7945 107.968V108.416C30.7945 109.455 29.9495 110.29 28.8998 110.29C27.8491 110.29 27.0051 109.454 27.0051 108.416V107.968C24.9245 107.194 23.4214 105.238 23.4214 102.916C23.4214 101.877 24.2663 101.042 25.3161 101.042C26.3668 101.042 27.2108 101.878 27.2108 102.916C27.2108 103.832 27.9732 104.586 28.8997 104.586C29.8262 104.586 30.5886 103.832 30.5886 102.916C30.5886 101.999 29.8262 101.245 28.8997 101.245C25.8926 101.245 23.4414 98.8211 23.4414 95.8475C23.4414 93.5255 24.9454 91.5496 27.0251 90.7955V90.3472C27.0251 89.3081 27.87 88.4735 28.9198 88.4735C29.9705 88.4735 30.8145 89.3091 30.8145 90.3472V90.7955C32.895 91.5692 34.3981 93.5254 34.3981 95.8475C34.3981 96.8866 33.5532 97.7212 32.5034 97.7212C31.4527 97.7212 30.6087 96.8856 30.6087 95.8475C30.6087 94.9312 29.8463 94.1773 28.9198 94.1773C27.9934 94.1773 27.2309 94.9312 27.2309 95.8475C27.2309 96.7637 27.9716 97.4971 28.899 97.4971L28.899 97.4971Z" fill="white"/>
<path d="M102.641 27.4445C101.425 27.4445 100.251 27.5871 99.1188 27.8318C98.583 19.643 91.6832 13.1654 83.2586 13.1654C81.8371 13.1654 80.4365 13.3483 79.1183 13.6953C76.0694 5.83171 68.3238 0.249878 59.2609 0.249878C50.1981 0.249878 42.4525 5.83171 39.3837 13.7149C38.0656 13.3689 36.665 13.1851 35.2434 13.1851C26.8188 13.1851 19.9389 19.6624 19.3832 27.8515C18.2709 27.587 17.0968 27.4445 15.8602 27.4445C7.08553 27.4445 0 34.4723 0 43.15C0 51.8077 7.08578 58.8348 15.8602 58.8348H33.286C32.956 57.2049 32.7919 55.5141 32.7919 53.8035C32.7919 39.3613 44.6769 27.6277 59.2604 27.6277C73.8439 27.6277 85.7289 39.3812 85.7289 53.8035C85.7289 55.5347 85.544 57.2049 85.2348 58.8348H102.64C111.414 58.8348 118.5 51.807 118.5 43.15C118.521 34.493 111.414 27.4445 102.64 27.4445H102.641Z" fill="white"/>
<path d="M59.2613 31.3555C46.7382 31.3555 36.562 41.3984 36.562 53.8038C36.562 66.1885 46.7173 76.2522 59.2613 76.2522C71.7845 76.2522 81.9607 66.2092 81.9607 53.8038C81.9607 41.4181 71.8054 31.3555 59.2613 31.3555V31.3555ZM59.2613 51.929C63.0099 51.929 66.0587 54.9442 66.0587 58.6512C66.0587 61.7067 63.9782 64.2528 61.1561 65.0678V66.2082C61.1561 67.2473 60.3112 68.082 59.2614 68.082C58.2107 68.082 57.3667 67.2464 57.3667 66.2082V65.0678C54.5446 64.2529 52.4641 61.7067 52.4641 58.6512C52.4641 57.6122 53.3091 56.7775 54.3588 56.7775C55.4095 56.7775 56.2535 57.6131 56.2535 58.6512C56.2535 60.2812 57.6134 61.6251 59.2606 61.6251C60.9088 61.6251 62.2677 60.2803 62.2677 58.6512C62.2677 57.0016 60.9079 55.6774 59.2606 55.6774C55.5121 55.6774 52.4633 52.6622 52.4633 48.9552C52.4633 45.8997 54.5438 43.3537 57.3658 42.5386V41.3982C57.3658 40.3591 58.2108 39.5245 59.2605 39.5245C60.3113 39.5245 61.1552 40.3601 61.1552 41.3982V42.5386C63.9774 43.3535 66.0578 45.8997 66.0578 48.9552C66.0578 49.9943 65.2129 50.8289 64.1632 50.8289C63.1125 50.8289 62.2685 49.9933 62.2685 48.9552C62.2685 47.3056 60.9086 45.9813 59.2613 45.9813C57.5933 45.9813 56.2542 47.3261 56.2542 48.9552C56.2542 50.6048 57.6132 51.929 59.2613 51.929V51.929Z" fill="white"/>
</svg>
