<svg width="116" height="116" viewBox="0 0 116 116" fill="none" xmlns="http://www.w3.org/2000/svg">
<path d="M58.25 0.249878C26.408 0.249878 0.5 26.1579 0.5 57.9999C0.5 89.8419 26.408 115.75 58.25 115.75C90.092 115.75 116 89.8419 116 57.9999C116 26.1579 90.092 0.249878 58.25 0.249878ZM33.5795 57.1491L57.4014 33.3272C57.7085 33.0217 58.0669 32.9756 58.2523 32.9756C58.4378 32.9756 58.7962 33.0209 59.1033 33.3272L82.9252 57.1491C83.2324 57.4546 83.2777 57.8129 83.2777 58.0001C83.2777 58.1864 83.2323 58.5439 82.9252 58.851L59.1033 82.6708C58.7962 82.9763 58.4378 83.0224 58.2523 83.0224C58.0669 83.0224 57.7085 82.9771 57.4014 82.6708L33.5795 58.8489C33.2723 58.5434 33.227 58.1851 33.227 57.9979C33.2279 57.8116 33.2732 57.4558 33.5803 57.1486L33.5795 57.1491Z" fill="white"/>
</svg>
